<?xml version="1.0" encoding="utf-8"?>
<!-- Generator: Adobe Illustrator 26.0.0, SVG Export Plug-In . SVG Version: 6.00 Build 0)  -->
<svg version="1.1" id="Layer_1" xmlns="http://www.w3.org/2000/svg" xmlns:xlink="http://www.w3.org/1999/xlink" x="0px" y="0px"
	 viewBox="0 0 80 11" style="enable-background:new 0 0 80 11;" xml:space="preserve">
<style type="text/css">
	.st0{fill:#0071BC;}
	.st1{fill:#ED1C24;}
	.st2{fill:#0A031E;}
</style>
<polygon class="st0" points="72.6,10.8 69.2,10.8 61.5,0.2 64.9,0.2 "/>
<polygon class="st1" points="78.2,10.8 74.7,10.8 67,0.2 70.5,0.2 "/>
<g>
	<path class="st2" d="M6.9,11c-1.1,0-2-0.1-2.7-0.4C3.5,10.3,3,9.9,2.6,9.4C2.3,9,2.2,8.5,2.2,7.9c0-0.5,0.2-1,0.5-1.4
		s0.8-0.7,1.4-0.9l1.4,0.6C5.4,6.4,5.3,6.6,5.3,6.8C5.2,6.9,5.2,7.1,5.2,7.3c0,0.4,0.1,0.7,0.4,1c0.3,0.3,0.7,0.5,1.3,0.5
		c0.5,0,0.9-0.1,1.1-0.3c0.2-0.2,0.4-0.4,0.4-0.6c0-0.2-0.1-0.3-0.2-0.4S7.7,7.2,7.4,7.1L4.5,6C4,5.8,3.6,5.5,3.3,5.2
		C3.1,5,2.9,4.6,2.8,4.3C2.7,4,2.6,3.6,2.6,3.3c0-0.6,0.2-1.2,0.5-1.7c0.3-0.5,0.8-0.9,1.5-1.2C5.2,0.1,6.1,0,7.1,0
		c0.8,0,1.5,0.1,2.1,0.4c0.6,0.3,1.1,0.6,1.4,1.1c0.3,0.4,0.5,0.9,0.5,1.5c0,0.3-0.1,0.5-0.2,0.8c-0.1,0.3-0.3,0.5-0.5,0.8
		C10.3,4.7,10,5,9.7,5.2L7.9,4.4C8,4.3,8.1,4.2,8.2,4.1C8.2,4,8.3,3.8,8.3,3.7c0-0.1,0.1-0.2,0.1-0.4C8.4,3,8.3,2.8,8,2.5
		C7.8,2.3,7.4,2.2,6.9,2.2c-0.5,0-0.8,0.1-1,0.2S5.7,2.8,5.7,3c0,0.1,0,0.2,0.1,0.3C5.8,3.4,5.9,3.5,6,3.6c0.1,0.1,0.3,0.2,0.5,0.2
		l3.1,1.2c0.7,0.3,1.2,0.6,1.5,1c0.3,0.4,0.5,0.9,0.5,1.6c0,0.6-0.2,1.1-0.5,1.6c-0.3,0.5-0.9,0.9-1.6,1.2C8.9,10.8,8,11,6.9,11z"/>
	<path class="st2" d="M17.5,11c-1.1,0-2-0.2-2.8-0.7C14,9.8,13.4,9.2,13,8.4c-0.4-0.8-0.6-1.8-0.6-2.9c0-1.1,0.2-2.1,0.6-2.9
		s1-1.5,1.8-1.9C15.6,0.2,16.5,0,17.6,0c1.1,0,2,0.2,2.7,0.7s1.3,1.1,1.7,1.9c0.4,0.8,0.6,1.8,0.6,2.9c0,1.1-0.2,2.1-0.6,2.9
		c-0.4,0.8-1,1.5-1.8,1.9S18.5,11,17.5,11z M17.5,7.8c0.4,0,0.7-0.1,0.9-0.2c0.2-0.1,0.4-0.4,0.6-0.7c0.1-0.3,0.2-0.8,0.2-1.4
		c0-0.6-0.1-1.1-0.2-1.5c-0.1-0.3-0.3-0.6-0.6-0.7c-0.2-0.1-0.6-0.2-0.9-0.2c-0.3,0-0.6,0.1-0.9,0.2c-0.2,0.1-0.4,0.4-0.6,0.7
		c-0.1,0.3-0.2,0.8-0.2,1.5c0,0.6,0.1,1.1,0.2,1.4c0.1,0.3,0.3,0.6,0.6,0.7C16.9,7.8,17.2,7.8,17.5,7.8z"/>
	<path class="st2" d="M27.9,0c1,0,1.9,0.2,2.6,0.7c0.7,0.5,1.2,1.1,1.6,1.9c0.4,0.8,0.6,1.8,0.6,2.8c0,1.2-0.2,2.2-0.7,3
		s-1.1,1.5-1.8,1.9S28.5,11,27.6,11c-0.5,0-1,0-1.4-0.1c-0.4-0.1-0.9-0.2-1.3-0.3l-0.4-0.1L25,8.1l0.3,0c0.3,0,0.5,0.1,0.7,0.1
		c0.2,0,0.5,0,0.9,0c0.7,0,1.3-0.2,1.7-0.7c0.4-0.4,0.6-1.2,0.6-2.3c0-0.6-0.1-1.1-0.2-1.5c-0.1-0.4-0.3-0.7-0.5-0.9
		s-0.5-0.3-0.8-0.3c-0.4,0-0.7,0.1-0.9,0.2c-0.2,0.2-0.3,0.4-0.3,0.8c0,0.2,0,0.4,0.1,0.6c0.1,0.1,0.2,0.3,0.4,0.3s0.4,0.1,0.7,0.1
		c0.1,0,0.3,0,0.4,0c0.1,0,0.3,0,0.4-0.1l0.7-0.2L29.7,6l-0.9,0.5c-0.3,0.2-0.6,0.3-0.9,0.4s-0.7,0.1-1,0.1c-0.6,0-1.1-0.1-1.6-0.4
		c-0.5-0.2-0.9-0.6-1.2-1.1s-0.4-1.1-0.4-1.8c0-0.8,0.2-1.4,0.6-2c0.4-0.5,0.9-1,1.5-1.2S27.1,0,27.9,0z"/>
	<path class="st2" d="M34.1,10.8V0.1h6.2c0.8,0,1.4,0.1,1.9,0.4c0.5,0.3,0.9,0.6,1.1,1.1c0.3,0.5,0.4,1,0.4,1.5
		c0,0.4-0.1,0.8-0.2,1.1c-0.1,0.4-0.4,0.7-0.7,1v0c0.4,0.2,0.8,0.5,1,0.9C44,6.6,44.1,7,44.1,7.5c0,0.7-0.1,1.2-0.4,1.7
		c-0.3,0.5-0.7,0.9-1.2,1.2c-0.5,0.3-1.2,0.4-2,0.4H34.1z M37.5,4.4h2c0.3,0,0.5-0.1,0.7-0.2s0.3-0.4,0.3-0.6c0-0.3-0.1-0.5-0.3-0.7
		s-0.5-0.2-0.9-0.2h-1.8V4.4z M37.5,8.1h1.9c0.4,0,0.7-0.1,0.9-0.2c0.2-0.1,0.3-0.3,0.3-0.7c0-0.3-0.1-0.5-0.2-0.7
		c-0.2-0.1-0.4-0.2-0.7-0.2h-2.1V8.1z"/>
	<path class="st2" d="M50.5,11c-1.2,0-2.2-0.2-3-0.7c-0.8-0.5-1.5-1.1-1.9-1.9c-0.4-0.8-0.7-1.8-0.7-2.9c0-1.1,0.2-2.1,0.7-2.9
		s1.1-1.5,2-1.9c0.9-0.4,1.8-0.7,3-0.7c1.2,0,2.2,0.2,3,0.7s1.5,1.1,1.9,1.9s0.7,1.8,0.7,2.9c0,1.1-0.2,2.1-0.7,2.9
		c-0.5,0.8-1.1,1.5-2,1.9S51.7,11,50.5,11z M50.5,7.8c0.5,0,0.8-0.1,1.2-0.2c0.3-0.1,0.6-0.4,0.7-0.7c0.2-0.3,0.3-0.8,0.3-1.5
		c0-0.6-0.1-1.1-0.2-1.4c-0.2-0.3-0.4-0.6-0.7-0.7c-0.3-0.1-0.7-0.2-1.2-0.2c-0.4,0-0.8,0.1-1.2,0.2C49,3.5,48.8,3.7,48.6,4
		c-0.2,0.3-0.3,0.8-0.3,1.5c0,0.6,0.1,1.1,0.2,1.4s0.4,0.6,0.7,0.7C49.7,7.8,50.1,7.8,50.5,7.8z"/>
	<path class="st2" d="M63.4,10.8l-2.1-3l-2,3h-3.7l3.6-5.4l-3.6-5.3h4l1.7,2.8l1.9-2.8h3.7l-3.7,5.2l3.8,5.5H63.4z"/>
</g>
</svg>
